<?xml version="1.0" encoding="UTF-8" standalone="no"?>
<!DOCTYPE svg PUBLIC "-//W3C//DTD SVG 1.1//EN" "http://www.w3.org/Graphics/SVG/1.1/DTD/svg11.dtd">
<svg width="100%" height="100%" viewBox="0 0 421 57" version="1.1" xmlns="http://www.w3.org/2000/svg" xmlns:xlink="http://www.w3.org/1999/xlink" xml:space="preserve" style="fill-rule:evenodd;clip-rule:evenodd;stroke-linejoin:round;stroke-miterlimit:1.41421;">
    <g id="DSC_0415_Image">
        <path d="M364,39.79C363.955,40.364 363.878,40.935 363.77,41.5C362.77,45.59 358.7,49.7 354.57,50.08C350.99,50.41 348.42,49.16 347.65,46.28C347.386,44.864 347.403,43.41 347.7,42C348.22,38.42 350.37,35.6 352.33,32.71C352.74,32.11 353.09,31.46 353.46,30.84L353.25,30.37C352.163,30.425 351.087,30.603 350.04,30.9C343.91,33.39 339.61,37.64 337.99,44.19C337.86,45.259 338.066,46.343 338.58,47.29C339.35,48.96 339.07,49.88 337.26,50.15C335.628,50.365 333.986,50.495 332.34,50.54C331.892,50.566 331.452,50.411 331.12,50.11C330.26,49.11 329.42,49.28 328.34,49.75C324.02,51.63 320.52,50.46 317.48,46.1C316.546,46.86 315.541,47.53 314.48,48.1C312.866,48.846 311.162,49.377 309.41,49.68C307.728,49.973 306.027,49.216 305.12,47.77C304.53,46.85 303.94,46.93 303.12,47.5C301.162,49.069 298.795,50.045 296.3,50.31C294.17,50.46 292.08,50.26 290.56,48.73C289.32,47.48 288.48,47.68 287.18,48.52C285.676,49.503 283.918,50.026 282.121,50.026C278.869,50.026 275.848,48.311 274.18,45.52C273.527,44.127 273.024,42.669 272.68,41.17C272.556,40.679 272.459,40.182 272.39,39.68C271.04,41.61 269.86,43.43 268.54,45.14C266.847,47.239 264.717,48.945 262.3,50.14C256.51,53.21 251.05,51.8 246.11,48.69C239.22,44.36 237.26,37.07 240.34,29.56C241.965,25.195 245.764,21.988 250.34,21.12C250.916,20.967 251.483,20.783 252.04,20.57C251.304,18.877 250.715,17.124 250.28,15.33C249.48,8.901 253.563,2.796 259.81,1.08C261.3,0.69 262.81,0.41 264.35,0.16C267.189,-0.308 270.104,0.26 272.56,1.76C274.27,2.76 275.9,3.93 277.64,4.9C278.674,5.382 279.736,5.803 280.82,6.16C282.3,6.76 282.56,7.4 281.58,8.62C280.72,9.69 279.58,10.51 278.58,11.52C277.861,12.313 277.193,13.152 276.58,14.03C276.29,14.43 276.21,15.03 275.85,15.29C275.262,15.71 274.57,15.962 273.85,16.02C273.63,16.02 273.31,15.02 273.17,14.38C272.72,12.45 272.66,10.38 271.84,8.61C270.35,5.39 267.18,4.53 264.01,4.71C260.06,4.94 256.21,7.14 255.01,11.83C253.87,16.35 256.11,20.1 260.66,21.11C262.03,21.326 263.413,21.443 264.8,21.46C265.95,21.54 267.36,21.19 267.68,22.87C267.89,23.94 266.8,24.61 264.98,24.79C262.31,25.04 259.53,25 256.98,25.79C252.98,26.96 249.35,28.9 247.69,33.11C246.259,37.003 247.334,41.397 250.4,44.19C252.55,45.99 255.24,46.04 257.93,46.03C261.72,46.03 264.25,44.11 265.93,40.93C266.97,39.021 267.869,37.039 268.62,35C269.62,32.31 270.62,31.9 272.97,33.81C273.264,33.254 273.521,32.679 273.74,32.09C275.01,27.9 278.02,25.09 281.58,22.99C285.14,20.89 288.75,20.99 292.45,24.26C293.91,25.55 293.99,25.53 294.72,23.69C297.573,16.53 300.433,9.357 303.3,2.17C304.02,0.38 304.66,0.17 306.53,0.28C309.1,0.42 311.69,0.28 314.27,0.39C315.016,0.488 315.75,0.662 316.46,0.91C316.289,1.646 316.02,2.356 315.66,3.02C313,6.69 310,10.12 307.6,14C303.002,21.43 299.309,29.383 296.6,37.69C296.301,38.696 296.094,39.727 295.98,40.77C295.928,40.965 295.901,41.166 295.901,41.369C295.901,42.636 296.944,43.679 298.211,43.679C298.399,43.679 298.587,43.656 298.77,43.61C301.052,43.407 302.861,41.547 303,39.26C303.33,29.47 306.65,20.54 311.56,12.15C313.6,8.67 315.6,5.18 317.56,1.68C318.128,0.597 319.377,0.044 320.56,0.35C322.56,0.62 324.56,0.75 326.62,0.92C327.17,0.92 327.73,0.92 328.26,0.99C329.56,1.22 330.06,2.06 329.52,3.27C328.85,4.77 328.04,6.2 327.27,7.66C323.74,14.42 320.27,21.23 316.64,27.92C314.27,32.24 311.53,36.37 308.96,40.58C308.65,41.09 308.38,41.63 308.04,42.12C307.224,43.141 307.254,44.613 308.11,45.6C308.873,46.738 310.361,47.163 311.61,46.6C313.497,45.606 315.318,44.49 317.06,43.26C317.438,42.877 317.701,42.395 317.82,41.87C318.9,38.93 319.82,35.87 321.06,33.05C322.375,30.55 323.257,27.845 323.67,25.05C323.9,22.56 324.75,22.4 326.86,23.57C328.261,24.157 329.753,24.495 331.27,24.57C331.77,24.64 332.34,24.23 332.87,24.24C333.593,24.313 334.308,24.444 335.01,24.63C334.73,25.25 334.61,26.1 334.13,26.47C331.305,28.704 328.84,31.358 326.82,34.34C324.939,36.816 323.721,39.732 323.28,42.81C323.14,44.05 322.94,45.4 324.15,46.23C325.36,47.06 326.59,46.61 327.8,45.93C329.855,44.687 331.586,42.973 332.85,40.93C335.882,36.525 338.032,31.573 339.18,26.35C339.43,25.22 340.18,24.92 341.29,24.96C342.4,25 343.81,24.69 345.08,24.67C345.97,24.67 347.08,24.55 347.69,25.03C348.56,25.76 349.1,25.49 349.93,25.17C352.77,24.1 355.6,22.85 358.76,23.45C359.476,23.609 360.155,23.904 360.76,24.32C361.708,24.994 362.114,26.212 361.76,27.32C361.15,30.65 358.93,32.99 356.92,35.45C354.996,37.82 353.654,40.608 353,43.59C352.632,45.19 353.342,46.856 354.75,47.7C356.01,48.474 357.673,48.15 358.55,46.96C360.02,45.16 361.21,43.14 362.55,41.2C362.87,40.72 363.16,40.2 363.46,39.72L364,39.79ZM278.71,37C278.733,37.796 278.796,38.59 278.9,39.38C279.51,42.83 281.44,44.79 284.35,45C286.093,45.18 287.748,44.145 288.35,42.5C289.46,39.19 290.63,35.91 291.65,32.57C291.849,31.815 291.76,31.013 291.4,30.32C290.311,28.538 288.368,27.448 286.28,27.448C284.882,27.448 283.526,27.937 282.45,28.83C279.992,30.814 278.605,33.843 278.71,37ZM320.86,11C315.5,17.19 311.28,24 309.73,32.18C314.41,25.64 317.09,18 320.86,11L320.86,11Z" style="fill:white;fill-rule:nonzero;"/>
        <path d="M156.84,34.16C154.838,36.154 152.952,38.261 151.19,40.47C149.62,42.65 148.84,45.22 150.19,47.95C150.302,48.109 150.362,48.298 150.362,48.492C150.362,48.983 149.979,49.395 149.49,49.43C149.396,49.461 149.299,49.481 149.2,49.49L141.05,49.63C140.45,49.63 139.85,49.63 139.26,49.63C136.33,49.83 133.5,49.72 131.02,47.8C130.66,47.53 129.79,47.69 129.27,47.9C125.97,49.457 122.14,49.457 118.84,47.9C117.689,47.304 116.634,46.538 115.71,45.63C115.465,45.302 115.078,45.108 114.669,45.108C114.343,45.108 114.03,45.23 113.79,45.45C111.985,46.606 110.119,47.665 108.2,48.62C105.847,49.691 103.168,49.81 100.73,48.95C98.47,48.25 97.4,46.37 96.89,44.16C96.8,43.79 96.74,43.41 96.6,42.63L93.32,45.27C91.18,46.99 89.07,48.7 86.32,49.36C83.91,49.93 81.84,49.63 80.32,47.47C79.62,46.47 79,46.47 78,47.12C76.755,47.936 75.411,48.588 74,49.06C71.428,49.828 68.638,48.807 67.17,46.56C66.62,45.79 66.02,45.07 65.25,44.08C64.43,44.61 63.54,45.08 62.75,45.7C59.95,47.928 56.506,49.197 52.93,49.32C47.62,49.49 44.54,45.22 46.53,40.32C47.72,37.38 49.53,34.7 50.97,31.86C51.71,30.404 52.309,28.88 52.76,27.31C53.32,25 54,24.7 56.23,25C59.07,25.45 61.96,25.55 64.84,25.79C65.24,25.79 65.69,25.67 66.02,25.79C66.53,26 67.26,26.33 67.36,26.73C67.46,27.13 67,27.84 66.59,28.16C64.92,29.42 63.22,30.65 61.46,31.77C58.77,33.529 56.609,35.987 55.21,38.88C54.484,40.451 54.551,42.277 55.39,43.79C55.992,44.914 57.4,45.361 58.54,44.79C60.436,43.979 62.263,43.012 64,41.9C64.278,41.687 64.446,41.36 64.46,41.01C64.38,34.77 67.17,29.56 70.39,24.51C73.177,20.143 75.993,15.793 78.84,11.46C80.4,9.09 82.06,6.79 83.61,4.46C84.07,3.685 84.439,2.86 84.71,2C84.936,1.119 85.737,0.498 86.647,0.498C86.827,0.498 87.006,0.522 87.18,0.57C89.74,0.89 92.32,1.17 94.89,1.44C96.23,1.58 96.59,2.09 95.89,3.27C94.79,5.17 93.63,7.033 92.41,8.86C89.1,13.86 85.67,18.74 82.41,23.76C78.955,29.119 75.079,34.195 70.82,38.94C69.24,40.7 69.59,44.31 71.59,45.57C72.065,45.833 72.615,45.928 73.15,45.84C74.115,45.633 75.066,45.369 76,45.05C77.77,44.52 78.35,43.3 78.86,41.51C79.856,37.867 81.244,34.343 83,31C85.599,26.283 88.46,21.716 91.57,17.32C94.55,13 97.9,9.07 101.07,5C101.684,4.043 102.351,3.121 103.07,2.24C103.613,1.64 104.349,1.247 105.15,1.13C107.83,1.05 110.52,1.13 113.21,1.26C113.281,1.251 113.352,1.246 113.423,1.246C114.323,1.246 115.063,1.986 115.063,2.886C115.063,3.232 114.954,3.57 114.75,3.85C114.194,4.854 113.551,5.807 112.83,6.7C109.76,10.76 106.71,14.83 103.58,18.83C98.153,25.797 92.68,32.753 87.16,39.7C86.57,40.44 85.84,41.06 85.16,41.75C84.48,42.44 83.44,43.24 84.36,44.53C85.076,45.619 86.518,45.989 87.67,45.38C90.07,43.8 92.78,42.38 94.58,40.27C97.892,36.162 100.986,31.883 103.85,27.45C105.39,25.17 105.85,25 108.53,25.72C110.236,26.049 111.974,26.18 113.71,26.11C114.71,26.11 115.71,25.85 116.71,25.95C117.23,26 117.71,26.56 118.2,26.9C117.89,27.35 117.67,27.98 117.2,28.23C115.36,29.32 113.4,30.23 111.59,31.34C107.769,33.677 104.925,37.325 103.59,41.6C103.15,42.98 103.01,44.44 104.23,45.51C105.315,46.488 106.926,46.636 108.17,45.87C109.944,44.783 111.635,43.566 113.23,42.23C113.592,41.767 113.774,41.187 113.74,40.6C113.808,36.076 115.989,31.836 119.63,29.15C123.07,26.5 126.81,24.56 131.3,24.92C132.602,25.073 133.86,25.484 135,26.13C136.13,26.72 136.76,26.59 137.44,25.53C138.58,23.75 139,23.76 140.73,25.05C141.131,25.322 141.619,25.44 142.1,25.38C143.33,25.2 144.53,24.84 145.77,24.67C146.25,24.6 147.07,24.67 147.21,24.99C147.382,25.519 147.313,26.097 147.02,26.57C145.02,29.57 142.79,32.48 140.91,35.57C139.875,37.552 138.986,39.608 138.25,41.72C138.163,41.9 138.131,42.102 138.16,42.3C138.48,43.3 138.56,44.68 139.25,45.15C140.31,45.87 141.25,44.72 141.97,43.91C142.507,43.348 142.949,42.703 143.28,42C144.79,38.32 146.28,34.64 147.61,30.89C147.925,29.581 148.016,28.229 147.88,26.89C147.88,25.49 148.62,24.62 149.97,24.99C152.113,25.763 154.497,25.5 156.42,24.28C156.721,24.102 157.074,24.032 157.42,24.08C157.97,24.198 158.512,24.355 159.04,24.55C158.904,25.103 158.699,25.638 158.43,26.14C157.956,26.732 157.438,27.287 156.88,27.8L157.13,28.06C158.65,26.97 160.13,25.84 161.68,24.81C163.55,23.57 164.76,23.81 166.55,25.18C167.058,25.467 167.664,25.529 168.22,25.35C169.22,25.04 170.13,24.49 171.09,24.08C173.41,23.08 175.24,23.26 176.48,24.57C177.795,26.269 178.018,28.582 177.05,30.5C175.31,33.57 173.4,36.55 171.64,39.62C170.867,40.899 170.25,42.265 169.8,43.69C169.577,44.516 169.759,45.4 170.29,46.07C171.078,46.399 171.981,46.3 172.68,45.81C174.013,44.496 175.24,43.078 176.35,41.57C176.653,41.054 176.901,40.508 177.09,39.94C177.48,39.14 178.09,38.27 178.98,38.76C179.511,39.281 179.767,40.023 179.67,40.76C179.06,44.64 174.92,48.76 171.07,49.45C168.26,49.97 165.93,48.29 166.27,45.45C166.56,42.99 167.64,40.61 168.43,38.22C168.69,37.42 169.22,36.71 169.51,35.92C170.15,34.15 169.33,33.24 167.44,33.48C165.786,33.675 164.284,34.544 163.29,35.88C160.976,38.709 159.246,41.968 158.2,45.47C157.957,46.439 157.499,47.342 156.86,48.11C156.37,48.65 155.27,49.22 154.75,49.01C153.941,48.613 153.346,47.882 153.12,47.01C152.61,44.22 153.93,41.89 155.37,39.62C156.061,38.527 156.669,37.384 157.19,36.2C157.352,35.611 157.426,35.001 157.41,34.39L156.84,34.16ZM119.8,40C119.96,41.4 119.98,43.07 121.4,44.27C123.3,45.88 127.59,45.79 129.4,44.05C129.66,43.824 129.836,43.518 129.9,43.18C130.371,38.858 131.689,34.672 133.78,30.86C134.29,29.86 133.78,29.55 132.87,29.34C132.105,29.17 131.323,29.084 130.539,29.084C124.647,29.084 119.799,33.932 119.799,39.824C119.799,39.883 119.799,39.941 119.8,40L119.8,40ZM87.85,34C93.9,26.89 99.85,19.69 104.2,11.36C96.891,17.372 91.258,25.171 87.85,34L87.85,34ZM85.24,14L84.81,13.71C80.812,18.522 77.255,23.682 74.18,29.13L74.79,29.55L85.24,14Z" style="fill:white;fill-rule:nonzero;"/>
        <path d="M16.74,12.1L13,12.1C10.738,12.159 8.506,11.558 6.58,10.37C5.669,9.942 5.086,9.023 5.086,8.017C5.086,7.53 5.222,7.053 5.48,6.64C6.07,5.64 6.81,5.7 7.7,6.3C8.785,7.196 10.072,7.814 11.45,8.1C16.71,8.49 21.8,7.92 26.23,4.56C28.281,2.857 30.79,1.796 33.44,1.51C34.324,1.43 35.216,1.494 36.08,1.7C36.56,1.919 36.904,2.361 37,2.88C37,3.21 36.6,3.76 36.23,3.97C34.16,5.1 32,6.07 30,7.26C23.21,11.26 18.45,17.19 14.66,23.9C13.105,26.85 11.852,29.949 10.92,33.15C10.639,34.554 10.701,36.005 11.1,37.38C11.39,38.8 12.27,39.22 13.38,38.38C15.43,36.76 17.68,35.13 19.08,33.01C21.63,29.16 23.56,24.91 25.86,20.89C27.12,18.717 28.502,16.617 30,14.6C30.37,14.09 31.32,14 32,13.72C32.12,14.44 32.54,15.27 32.3,15.85C31.628,17.6 30.776,19.275 29.76,20.85C26.49,25.71 24.11,30.75 25.68,36.85C25.788,37.491 25.976,38.116 26.24,38.71C28.06,42 30,42.82 32.88,40.49C35.757,38.194 37.615,34.855 38.05,31.2C38.704,27.162 39.111,23.088 39.27,19C39.35,15.34 38.81,11.67 38.54,8C38.465,7.56 38.425,7.116 38.42,6.67C38.56,5.09 39.61,4.45 40.88,5.34C42.365,6.314 44.242,6.486 45.88,5.8C48.56,5 51.2,4.07 53.32,2.08C53.65,1.77 54.32,1.86 54.9,1.76C54.71,2.22 54.65,2.76 54.32,3.12C52.107,5.22 49.83,7.287 47.49,9.32C46.558,10.135 45.554,10.865 44.49,11.5C43.75,11.832 43.349,12.652 43.54,13.44C44.248,18.139 44.402,22.905 44,27.64C43.502,33.771 41.803,39.745 39,45.22C37,48.94 32.54,51.76 28.35,51.49C25.956,51.343 23.751,50.126 22.35,48.18C21.362,46.635 20.486,45.021 19.73,43.35C19.486,42.952 19.218,42.568 18.93,42.2C18.597,42.438 18.285,42.706 18,43C16.816,44.67 15.547,46.279 14.2,47.82C12.007,50.115 8.684,50.963 5.66,50C3.095,49.226 1.138,47.124 0.55,44.51C-0.59,40.75 0.17,37.06 1.7,33.57C4.442,27.682 7.963,22.189 12.17,17.24C13.54,15.55 15.07,14 16.74,12.1Z" style="fill:white;fill-rule:nonzero;"/>
        <path d="M210.37,51.11C204.21,51.11 199.25,49.11 195.89,44.05C192.806,39.427 193.012,33.315 196.4,28.91C197.778,27.279 199.297,25.773 200.94,24.41C201.58,23.83 202.61,23.41 203.14,24.32C203.37,24.72 202.85,26.04 202.32,26.32C197.76,28.95 196.93,34.91 200.13,39.38C203.59,44.22 208.53,45.24 213.9,43.04C215.817,42.222 217.218,40.518 217.65,38.48C218.91,34.02 217.45,30.35 214.57,27.02C212.57,24.72 210.57,22.44 208.69,20.02C203.34,13.14 205.69,5.22 211.97,1.59C214.395,0.209 217.256,-0.199 219.97,0.45C223.596,1.074 226.904,2.911 229.35,5.66C230.142,6.31 231.073,6.768 232.07,7C232.52,7.17 233.07,7.07 233.55,7.2C234.8,7.55 235.2,8.53 234.43,9.54C233.2,11.16 231.83,12.68 230.57,14.29C229.96,15.06 229.49,15.95 228.88,16.73C228.545,17.061 228.169,17.346 227.76,17.58C227.48,17.16 227.03,16.77 226.95,16.3C226.807,14.777 226.573,13.265 226.25,11.77C225.31,8.86 222.91,7.57 220.1,6.97C217.51,6.42 215.76,7.72 213.98,9.52C210.48,13.06 212.98,17.52 215.65,20.14C218.03,22.48 220.4,24.83 222.65,27.25C225.467,30.053 226.521,34.191 225.39,38C224.31,42.33 222.44,46.16 218.66,48.81C216.07,50.58 213.09,50.8 210.37,51.11Z" style="fill:white;fill-rule:nonzero;"/>
        <path d="M389.47,44.28C388.31,45.28 387.29,46.17 386.18,46.98C383.42,48.98 379.18,48.84 377.27,46.5C374.9,43.5 373.44,40.23 374.27,36.24C375.18,31.67 377.27,27.92 381.27,25.4C384.347,23.303 388.49,23.572 391.27,26.05C391.792,26.339 392.384,26.477 392.98,26.45C393.35,26.45 393.77,26.12 394.12,26.18C394.777,26.217 395.407,26.458 395.92,26.87C396.13,27.12 395.75,28.06 395.41,28.53C394.28,30.11 393.09,31.65 391.82,33.12C391.393,33.693 390.741,34.057 390.03,34.12C389.56,34.04 389.11,33.12 388.88,32.51C388.31,30.95 387.88,29.32 386.01,28.81C384.14,28.3 382.69,29.25 381.44,30.63C379.15,33.15 378.44,36.25 378.21,39.46C378.173,41.709 379.858,43.646 382.09,43.92C385.43,44.44 388.97,42.33 390.56,39.29C391.508,37.313 392.801,35.521 394.38,34C397.52,31.22 401.51,31.19 404.09,35.48C405.69,38.15 405.78,38.11 408.56,36.55C409.65,35.94 410.7,35.27 411.81,34.71C412.219,34.595 412.646,34.555 413.07,34.59C412.94,35.07 412.98,35.76 412.67,35.99C411.167,37.14 409.594,38.195 407.96,39.15C406.714,39.664 405.762,40.711 405.37,42C404.556,45.367 402.057,48.086 398.77,49.18C394.99,50.5 391.99,49.28 390.19,45.7C390,45.24 389.75,44.81 389.47,44.28ZM394.52,39.59C393.723,41.096 393.502,42.843 393.9,44.5C394.259,45.731 395.442,46.548 396.72,46.45C398.33,46.27 400.38,43.69 400.4,42.02L394.52,39.59ZM399.93,39.06C400.07,38.93 400.66,38.66 400.72,38.29C400.91,37.29 399.22,35.61 397.96,35.68C397.448,35.804 397.032,36.182 396.86,36.68C396.64,37.83 398,39 399.93,39.06L399.93,39.06Z" style="fill:white;fill-rule:nonzero;"/>
        <path d="M70.08,17.47C69.63,20.74 68.15,23.23 65.13,24.47C63.435,25.322 61.396,25.139 59.88,24C58.17,22.7 57.98,20.74 58.21,18.84C58.505,16.643 59.611,14.634 61.31,13.21C62.793,11.696 65.126,11.367 66.97,12.41C68.825,13.428 70.009,15.355 70.08,17.47Z" style="fill:white;fill-rule:nonzero;"/>
        <path d="M327.73,18.2C327.857,14.833 329.911,11.824 333,10.48C334.891,9.653 337.11,10.103 338.53,11.6C339.92,13 339.91,14.8 339.22,16.6C338.12,19.268 335.886,21.312 333.13,22.17C332.708,22.313 332.265,22.386 331.819,22.386C329.575,22.386 327.729,20.54 327.729,18.296C327.729,18.264 327.729,18.232 327.73,18.2L327.73,18.2Z" style="fill:white;fill-rule:nonzero;"/>
        <path d="M110.33,20.39C110.86,16.2 114.21,13.14 119.01,14.78C120.667,15.524 121.6,17.328 121.25,19.11C120.59,21.86 119.12,24.04 116.25,24.99C113.11,26.07 110.29,23.88 110.33,20.39Z" style="fill:white;fill-rule:nonzero;"/>
        <path d="M225,45.81C224.999,45.772 224.999,45.734 224.999,45.695C224.999,42.519 227.613,39.905 230.789,39.905C231.251,39.905 231.711,39.961 232.16,40.07C235.37,40.88 236.43,45.25 234.05,48.07C232.707,49.658 230.709,50.547 228.63,50.48C226.42,50.43 225,48.59 225,45.81Z" style="fill:white;fill-rule:nonzero;"/>
        <path d="M416.1,40.46C416.124,40.46 416.148,40.459 416.173,40.459C418.751,40.459 420.873,42.581 420.873,45.159C420.873,45.213 420.872,45.266 420.87,45.32C420.87,48.39 418.87,50.32 415.62,50.39C412.875,50.331 410.615,48.132 410.48,45.39C410.46,42.22 412.47,40.47 416.1,40.46Z" style="fill:white;fill-rule:nonzero;"/>
        <path d="M362.8,56.29C363.04,54.29 364.61,54.03 365.42,53.1C366.23,52.17 367.05,51.1 368.1,49.86C367.03,49.86 366.54,49.86 366.1,49.86C366.081,49.86 366.062,49.861 366.042,49.861C364.468,49.861 363.172,48.565 363.172,46.991C363.172,46.92 363.175,46.85 363.18,46.78C363.247,44.373 364.71,42.214 366.92,41.26C368.81,40.26 371.67,41.88 371.92,44.07C372.25,47.43 371.64,50.52 368.56,52.6C367.16,53.54 365.82,54.6 364.43,55.53C363.904,55.82 363.36,56.074 362.8,56.29Z" style="fill:white;fill-rule:nonzero;"/>
    </g>
</svg>
