<svg xmlns="http://www.w3.org/2000/svg" viewBox="0 0 420.86 56.29"><title>Asset 1</title><g id="Layer_2" data-name="Layer 2"><g id="DSC_0415_Image" data-name="DSC_0415 Image"><path d="M364,39.79a15.66,15.66,0,0,1-.23,1.71c-1,4.09-5.07,8.2-9.2,8.58-3.58.33-6.15-.92-6.92-3.8A11,11,0,0,1,347.7,42c.52-3.58,2.67-6.4,4.63-9.29.41-.6.76-1.25,1.13-1.87l-.21-.47a14.44,14.44,0,0,0-3.21.53c-6.13,2.49-10.43,6.74-12.05,13.29a5.19,5.19,0,0,0,.59,3.1c.77,1.67.49,2.59-1.32,2.86a47.46,47.46,0,0,1-4.92.39,1.67,1.67,0,0,1-1.22-.43c-.86-1-1.7-.83-2.78-.36-4.32,1.88-7.82.71-10.86-3.65a19,19,0,0,1-3,2,20.33,20.33,0,0,1-5.07,1.58,4.21,4.21,0,0,1-4.29-1.91c-.59-.92-1.18-.84-2-.27a13.12,13.12,0,0,1-6.82,2.81c-2.13.15-4.22-.05-5.74-1.58-1.24-1.25-2.08-1.05-3.38-.21a9.25,9.25,0,0,1-13-3,21.63,21.63,0,0,1-1.5-4.35,13.53,13.53,0,0,1-.29-1.49c-1.35,1.93-2.53,3.75-3.85,5.46a18.62,18.62,0,0,1-6.24,5c-5.79,3.07-11.25,1.66-16.19-1.45-6.89-4.33-8.85-11.62-5.77-19.13a13.32,13.32,0,0,1,10-8.44,17,17,0,0,0,1.7-.55,32.08,32.08,0,0,1-1.76-5.24,13.1,13.1,0,0,1,9.53-14.25c1.49-.39,3-.67,4.54-.92a12,12,0,0,1,8.21,1.6c1.71,1,3.34,2.17,5.08,3.14a28.88,28.88,0,0,0,3.18,1.26c1.48.6,1.74,1.24.76,2.46-.86,1.07-2,1.89-3,2.9a25.16,25.16,0,0,0-2,2.51c-.29.4-.37,1-.73,1.26a4,4,0,0,1-2,.73c-.22,0-.54-1-.68-1.64-.45-1.93-.51-4-1.33-5.77-1.49-3.22-4.66-4.08-7.83-3.9-3.95.23-7.8,2.43-9,7.12-1.14,4.52,1.1,8.27,5.65,9.28a28.94,28.94,0,0,0,4.14.35c1.15.08,2.56-.27,2.88,1.41.21,1.07-.88,1.74-2.7,1.92-2.67.25-5.45.21-8,1-4,1.17-7.63,3.11-9.29,7.32a10.22,10.22,0,0,0,2.71,11.08c2.15,1.8,4.84,1.85,7.53,1.84,3.79,0,6.32-1.92,8-5.1A44.67,44.67,0,0,0,268.62,35c1-2.69,2-3.1,4.35-1.19a14.51,14.51,0,0,0,.77-1.72c1.27-4.19,4.28-7,7.84-9.1s7.17-2,10.87,1.27c1.46,1.29,1.54,1.27,2.27-.57Q299,12.95,303.3,2.17c.72-1.79,1.36-2,3.23-1.89,2.57.14,5.16,0,7.74.11a11,11,0,0,1,2.19.52,8.43,8.43,0,0,1-.8,2.11C313,6.69,310,10.12,307.6,14a109.58,109.58,0,0,0-11,23.69,17.45,17.45,0,0,0-.62,3.08,2.31,2.31,0,0,0,2.79,2.84A4.65,4.65,0,0,0,303,39.26c.33-9.79,3.65-18.72,8.56-27.11q3.06-5.22,6-10.47a2.64,2.64,0,0,1,3-1.33c2,.27,4,.4,6.06.57.55,0,1.11,0,1.64.07,1.3.23,1.8,1.07,1.26,2.28-.67,1.5-1.48,2.93-2.25,4.39-3.53,6.76-7,13.57-10.63,20.26-2.37,4.32-5.11,8.45-7.68,12.66-.31.51-.58,1.05-.92,1.54a2.72,2.72,0,0,0,.07,3.48,2.82,2.82,0,0,0,3.5,1,49.19,49.19,0,0,0,5.45-3.34,2.89,2.89,0,0,0,.76-1.39c1.08-2.94,2-6,3.24-8.82a25.05,25.05,0,0,0,2.61-8c.23-2.49,1.08-2.65,3.19-1.48a13.07,13.07,0,0,0,4.41,1c.5.07,1.07-.34,1.6-.33a13.73,13.73,0,0,1,2.14.39c-.28.62-.4,1.47-.88,1.84a35.21,35.21,0,0,0-7.31,7.87,18.29,18.29,0,0,0-3.54,8.47c-.14,1.24-.34,2.59.87,3.42s2.44.38,3.65-.3a15.17,15.17,0,0,0,5.05-5,41.39,41.39,0,0,0,6.33-14.58c.25-1.13,1-1.43,2.11-1.39s2.52-.27,3.79-.29c.89,0,2-.12,2.61.36.87.73,1.41.46,2.24.14,2.84-1.07,5.67-2.32,8.83-1.72a5.71,5.71,0,0,1,2,.87,2.68,2.68,0,0,1,1,3c-.61,3.33-2.83,5.67-4.84,8.13a19.56,19.56,0,0,0-3.92,8.14,3.8,3.8,0,0,0,1.75,4.11,2.86,2.86,0,0,0,3.8-.74c1.47-1.8,2.66-3.82,4-5.76.32-.48.61-1,.91-1.48ZM278.71,37a23.48,23.48,0,0,0,.19,2.38c.61,3.45,2.54,5.41,5.45,5.62a3.84,3.84,0,0,0,4-2.5c1.11-3.31,2.28-6.59,3.3-9.93a3.14,3.14,0,0,0-.25-2.25,6,6,0,0,0-8.95-1.49A10.07,10.07,0,0,0,278.71,37Zm42.15-26c-5.36,6.19-9.58,13-11.13,21.18C314.41,25.64,317.09,18,320.86,11Z"/><path d="M156.84,34.16a74.31,74.31,0,0,0-5.65,6.31c-1.57,2.18-2.35,4.75-1,7.48a.94.94,0,0,1-.7,1.48,1.27,1.27,0,0,1-.29.06l-8.15.14c-.6,0-1.2,0-1.79,0-2.93.2-5.76.09-8.24-1.83-.36-.27-1.23-.11-1.75.1a12.22,12.22,0,0,1-10.43,0,13,13,0,0,1-3.13-2.27,1.3,1.3,0,0,0-1.92-.18,59.61,59.61,0,0,1-5.59,3.17,10,10,0,0,1-7.47.33c-2.26-.7-3.33-2.58-3.84-4.79-.09-.37-.15-.75-.29-1.53l-3.28,2.64c-2.14,1.72-4.25,3.43-7,4.09-2.41.57-4.48.27-6-1.89-.7-1-1.32-1-2.32-.35a17.35,17.35,0,0,1-4,1.94,6.08,6.08,0,0,1-6.83-2.5c-.55-.77-1.15-1.49-1.92-2.48-.82.53-1.71,1-2.5,1.62a16.69,16.69,0,0,1-9.82,3.62c-5.31.17-8.39-4.1-6.4-9,1.19-2.94,3-5.62,4.44-8.46a25.74,25.74,0,0,0,1.79-4.55C53.32,25,54,24.7,56.23,25c2.84.45,5.73.55,8.61.79.4,0,.85-.12,1.18,0,.51.21,1.24.54,1.34.94s-.36,1.11-.77,1.43c-1.67,1.26-3.37,2.49-5.13,3.61a17.71,17.71,0,0,0-6.25,7.11,5.43,5.43,0,0,0,.18,4.91,2.37,2.37,0,0,0,3.15,1A37.45,37.45,0,0,0,64,41.9a1.18,1.18,0,0,0,.46-.89c-.08-6.24,2.71-11.45,5.93-16.5q4.18-6.55,8.45-13.05c1.56-2.37,3.22-4.67,4.77-7A11.72,11.72,0,0,0,84.71,2,2,2,0,0,1,87.18.57c2.56.32,5.14.6,7.71.87,1.34.14,1.7.65,1,1.83q-1.65,2.85-3.48,5.59c-3.31,5-6.74,9.88-10,14.9A120.42,120.42,0,0,1,70.82,38.94c-1.58,1.76-1.23,5.37.77,6.63a2.41,2.41,0,0,0,1.56.27A25.27,25.27,0,0,0,76,45.05c1.77-.53,2.35-1.75,2.86-3.54A52.17,52.17,0,0,1,83,31a144.12,144.12,0,0,1,8.57-13.68C94.55,13,97.9,9.07,101.07,5a29.85,29.85,0,0,1,2-2.76,3.49,3.49,0,0,1,2.08-1.11c2.68-.08,5.37,0,8.06.13a1.64,1.64,0,0,1,1.54,2.59,19.81,19.81,0,0,1-1.92,2.85c-3.07,4.06-6.12,8.13-9.25,12.13Q95.44,29.28,87.16,39.7c-.59.74-1.32,1.36-2,2.05s-1.72,1.49-.8,2.78a2.54,2.54,0,0,0,3.31.85c2.4-1.58,5.11-3,6.91-5.11a150.84,150.84,0,0,0,9.27-12.82c1.54-2.28,2-2.45,4.68-1.73a22.54,22.54,0,0,0,5.18.39c1,0,2-.26,3-.16.52.05,1,.61,1.49.95-.31.45-.53,1.08-1,1.33-1.84,1.09-3.8,2-5.61,3.11a18.49,18.49,0,0,0-8,10.26c-.44,1.38-.58,2.84.64,3.91a3.3,3.3,0,0,0,3.94.36,42.23,42.23,0,0,0,5.06-3.64,2.42,2.42,0,0,0,.51-1.63,14.5,14.5,0,0,1,5.89-11.45c3.44-2.65,7.18-4.59,11.67-4.23A9.83,9.83,0,0,1,135,26.13c1.13.59,1.76.46,2.44-.6,1.14-1.78,1.56-1.77,3.29-.48a2,2,0,0,0,1.37.33c1.23-.18,2.43-.54,3.67-.71.48-.07,1.3,0,1.44.32a1.89,1.89,0,0,1-.19,1.58c-2,3-4.23,5.91-6.11,9a45.91,45.91,0,0,0-2.66,6.15,1,1,0,0,0-.09.58c.32,1,.4,2.38,1.09,2.85,1.06.72,2-.43,2.72-1.24A7.22,7.22,0,0,0,143.28,42c1.51-3.68,3-7.36,4.33-11.11a11.93,11.93,0,0,0,.27-4c0-1.4.74-2.27,2.09-1.9a7.37,7.37,0,0,0,6.45-.71,1.55,1.55,0,0,1,1-.2,11.86,11.86,0,0,1,1.62.47,6.79,6.79,0,0,1-.61,1.59,15,15,0,0,1-1.55,1.66l.25.26c1.52-1.09,3-2.22,4.55-3.25,1.87-1.24,3.08-1,4.87.37a2.09,2.09,0,0,0,1.67.17c1-.31,1.91-.86,2.87-1.27,2.32-1,4.15-.82,5.39.49a5.58,5.58,0,0,1,.57,5.93c-1.74,3.07-3.65,6.05-5.41,9.12a18.84,18.84,0,0,0-1.84,4.07,2.7,2.7,0,0,0,.49,2.38,2.49,2.49,0,0,0,2.39-.26,35.48,35.48,0,0,0,3.67-4.24,8.51,8.51,0,0,0,.74-1.63c.39-.8,1-1.67,1.89-1.18a2.37,2.37,0,0,1,.69,2c-.61,3.88-4.75,8-8.6,8.69-2.81.52-5.14-1.16-4.8-4,.29-2.46,1.37-4.84,2.16-7.23.26-.8.79-1.51,1.08-2.3.64-1.77-.18-2.68-2.07-2.44a6.06,6.06,0,0,0-4.15,2.4,27.63,27.63,0,0,0-5.09,9.59,6.67,6.67,0,0,1-1.34,2.64c-.49.54-1.59,1.11-2.11.9a3.09,3.09,0,0,1-1.63-2c-.51-2.79.81-5.12,2.25-7.39a26.09,26.09,0,0,0,1.82-3.42,6.23,6.23,0,0,0,.22-1.81ZM119.8,40c.16,1.4.18,3.07,1.6,4.27,1.9,1.61,6.19,1.52,8-.22a1.53,1.53,0,0,0,.5-.87,33.06,33.06,0,0,1,3.88-12.32c.51-1,0-1.31-.91-1.52A10.74,10.74,0,0,0,119.8,40ZM87.85,34c6.05-7.11,12-14.31,16.35-22.64A54.93,54.93,0,0,0,87.85,34ZM85.24,14l-.43-.29A104.52,104.52,0,0,0,74.18,29.13l.61.42Z"/><path d="M16.74,12.1H13a11.65,11.65,0,0,1-6.42-1.73A2.6,2.6,0,0,1,5.48,6.64c.59-1,1.33-.94,2.22-.34a8.66,8.66,0,0,0,3.75,1.8c5.26.39,10.35-.18,14.78-3.54a13.57,13.57,0,0,1,7.21-3.05,8.21,8.21,0,0,1,2.64.19A1.62,1.62,0,0,1,37,2.88c0,.33-.4.88-.77,1.09C34.16,5.1,32,6.07,30,7.26c-6.79,4-11.55,9.93-15.34,16.64a49.58,49.58,0,0,0-3.74,9.25,8.91,8.91,0,0,0,.18,4.23c.29,1.42,1.17,1.84,2.28,1,2.05-1.62,4.3-3.25,5.7-5.37,2.55-3.85,4.48-8.1,6.78-12.12A66.48,66.48,0,0,1,30,14.6c.37-.51,1.32-.6,2-.88.12.72.54,1.55.3,2.13a27.23,27.23,0,0,1-2.54,5c-3.27,4.86-5.65,9.9-4.08,16a7.71,7.71,0,0,0,.56,1.86C28.06,42,30,42.82,32.88,40.49a14,14,0,0,0,5.17-9.29A100.88,100.88,0,0,0,39.27,19c.08-3.66-.46-7.33-.73-11a8.52,8.52,0,0,1-.12-1.33c.14-1.58,1.19-2.22,2.46-1.33a5.35,5.35,0,0,0,5,.46C48.56,5,51.2,4.07,53.32,2.08c.33-.31,1-.22,1.58-.32-.19.46-.25,1-.58,1.36Q51,6.27,47.49,9.32a20.58,20.58,0,0,1-3,2.18,1.69,1.69,0,0,0-.95,1.94A60.82,60.82,0,0,1,44,27.64a46.9,46.9,0,0,1-5,17.58c-2,3.72-6.46,6.54-10.65,6.27a8,8,0,0,1-6-3.31,38.12,38.12,0,0,1-2.62-4.83,12.24,12.24,0,0,0-.8-1.15A6.81,6.81,0,0,0,18,43a60.54,60.54,0,0,1-3.8,4.82A8.32,8.32,0,0,1,5.66,50,7.44,7.44,0,0,1,.55,44.51C-.59,40.75.17,37.06,1.7,33.57A72.39,72.39,0,0,1,12.17,17.24C13.54,15.55,15.07,14,16.74,12.1Z"/><path d="M210.37,51.11c-6.16,0-11.12-2-14.48-7.06a13,13,0,0,1,.51-15.14,36.27,36.27,0,0,1,4.54-4.5c.64-.58,1.67-1,2.2-.09.23.4-.29,1.72-.82,2-4.56,2.63-5.39,8.59-2.19,13.06,3.46,4.84,8.4,5.86,13.77,3.66a6.4,6.4,0,0,0,3.75-4.56c1.26-4.46-.2-8.13-3.08-11.46-2-2.3-4-4.58-5.88-7-5.35-6.88-3-14.8,3.28-18.43a11,11,0,0,1,8-1.14,16.24,16.24,0,0,1,9.38,5.21A6.67,6.67,0,0,0,232.07,7c.45.17,1,.07,1.48.2,1.25.35,1.65,1.33.88,2.34-1.23,1.62-2.6,3.14-3.86,4.75-.61.77-1.08,1.66-1.69,2.44a5.43,5.43,0,0,1-1.12.85c-.28-.42-.73-.81-.81-1.28a38.37,38.37,0,0,0-.7-4.53c-.94-2.91-3.34-4.2-6.15-4.8-2.59-.55-4.34.75-6.12,2.55-3.5,3.54-1,8,1.67,10.62,2.38,2.34,4.75,4.69,7,7.11A10.82,10.82,0,0,1,225.39,38c-1.08,4.33-2.95,8.16-6.73,10.81C216.07,50.58,213.09,50.8,210.37,51.11Z"/><path d="M389.47,44.28c-1.16,1-2.18,1.89-3.29,2.7-2.76,2-7,1.86-8.91-.48-2.37-3-3.83-6.27-3-10.26.91-4.57,3-8.32,7-10.84a8.14,8.14,0,0,1,10,.65,3.23,3.23,0,0,0,1.71.4c.37,0,.79-.33,1.14-.27a3.16,3.16,0,0,1,1.8.69c.21.25-.17,1.19-.51,1.66-1.13,1.58-2.32,3.12-3.59,4.59a2.51,2.51,0,0,1-1.79,1c-.47-.08-.92-1-1.15-1.61-.57-1.56-1-3.19-2.87-3.7s-3.32.44-4.57,1.82c-2.29,2.52-3,5.62-3.23,8.83a4.42,4.42,0,0,0,3.88,4.46c3.34.52,6.88-1.59,8.47-4.63A18.38,18.38,0,0,1,394.38,34c3.14-2.78,7.13-2.81,9.71,1.48,1.6,2.67,1.69,2.63,4.47,1.07,1.09-.61,2.14-1.28,3.25-1.84a3.57,3.57,0,0,1,1.26-.12c-.13.48-.09,1.17-.4,1.4a45.64,45.64,0,0,1-4.71,3.16A4.5,4.5,0,0,0,405.37,42a10.06,10.06,0,0,1-6.6,7.18c-3.78,1.32-6.78.1-8.58-3.48C390,45.24,389.75,44.81,389.47,44.28Zm5.05-4.69a7,7,0,0,0-.62,4.91,2.72,2.72,0,0,0,2.82,1.95c1.61-.18,3.66-2.76,3.68-4.43Zm5.41-.53c.14-.13.73-.4.79-.77.19-1-1.5-2.68-2.76-2.61a1.55,1.55,0,0,0-1.1,1C396.64,37.83,398,39,399.93,39.06Z"/><path d="M70.08,17.47c-.45,3.27-1.93,5.76-4.95,7A5,5,0,0,1,59.88,24c-1.71-1.3-1.9-3.26-1.67-5.16a8.89,8.89,0,0,1,3.1-5.63,4.69,4.69,0,0,1,5.66-.8A6,6,0,0,1,70.08,17.47Z"/><path d="M327.73,18.2A8.78,8.78,0,0,1,333,10.48a4.91,4.91,0,0,1,5.53,1.12c1.39,1.4,1.38,3.2.69,5a9.71,9.71,0,0,1-6.09,5.57A4.09,4.09,0,0,1,327.73,18.2Z"/><path d="M110.33,20.39c.53-4.19,3.88-7.25,8.68-5.61a3.92,3.92,0,0,1,2.24,4.33c-.66,2.75-2.13,4.93-5,5.88C113.11,26.07,110.29,23.88,110.33,20.39Z"/><path d="M225,45.81a5.79,5.79,0,0,1,7.16-5.74c3.21.81,4.27,5.18,1.89,8a6.81,6.81,0,0,1-5.42,2.41C226.42,50.43,225,48.59,225,45.81Z"/><path d="M416.1,40.46a4.7,4.7,0,0,1,4.77,4.86c0,3.07-2,5-5.25,5.07a5.26,5.26,0,0,1-5.14-5C410.46,42.22,412.47,40.47,416.1,40.46Z"/><path d="M362.8,56.29c.24-2,1.81-2.26,2.62-3.19s1.63-2,2.68-3.24c-1.07,0-1.56,0-2,0a2.87,2.87,0,0,1-2.92-3.08,6.2,6.2,0,0,1,3.74-5.52c1.89-1,4.75.62,5,2.81.33,3.36-.28,6.45-3.36,8.53-1.4.94-2.74,2-4.13,2.93A13.32,13.32,0,0,1,362.8,56.29Z"/></g></g></svg>